<?xml version="1.0" standalone="no"?>
<!DOCTYPE svg PUBLIC "-//W3C//DTD SVG 20010904//EN"
 "http://www.w3.org/TR/2001/REC-SVG-20010904/DTD/svg10.dtd">
<svg version="1.0" xmlns="http://www.w3.org/2000/svg"
 width="417.000000pt" height="234.000000pt" viewBox="0 0 417.000000 234.000000"
 preserveAspectRatio="xMidYMid meet">

<g transform="translate(0.000000,234.000000) scale(0.100000,-0.100000)"
fill="#000000" stroke="none">
<path d="M2158 1913 c7 -3 16 -2 19 1 4 3 -2 6 -13 5 -11 0 -14 -3 -6 -6z"/>
<path d="M2303 1882 c10 -10 14 -22 10 -27 -5 -4 -2 -5 5 -1 11 6 10 12 -4 27
-9 10 -19 19 -22 19 -3 0 2 -8 11 -18z"/>
<path d="M2027 1858 c-10 -17 -15 -33 -12 -36 3 -3 5 -1 5 4 0 6 9 20 20 32
11 11 16 23 12 26 -4 2 -15 -9 -25 -26z"/>
<path d="M2270 1876 c0 -2 8 -10 18 -17 15 -13 16 -12 3 4 -13 16 -21 21 -21
13z"/>
<path d="M1990 1811 c0 -6 4 -13 10 -16 6 -3 7 1 4 9 -7 18 -14 21 -14 7z"/>
<path d="M2268 1743 c6 -2 18 -2 25 0 6 3 1 5 -13 5 -14 0 -19 -2 -12 -5z"/>
<path d="M2441 1574 c0 -11 3 -14 6 -6 3 7 2 16 -1 19 -3 4 -6 -2 -5 -13z"/>
<path d="M2090 1516 c0 -2 7 -7 16 -10 8 -3 12 -2 9 4 -6 10 -25 14 -25 6z"/>
<path d="M2400 1500 c-9 -6 -10 -10 -3 -10 6 0 15 5 18 10 8 12 4 12 -15 0z"/>
<path d="M1845 1400 c-3 -5 1 -10 10 -10 9 0 13 5 10 10 -3 6 -8 10 -10 10 -2
0 -7 -4 -10 -10z"/>
<path d="M1918 1403 c7 -3 16 -2 19 1 4 3 -2 6 -13 5 -11 0 -14 -3 -6 -6z"/>
<path d="M2174 1395 c-12 -8 -25 -11 -29 -7 -5 4 -5 1 -1 -5 5 -10 13 -9 32 3
13 9 24 18 24 20 0 7 -5 5 -26 -11z"/>
<path d="M2045 1360 c-3 -6 1 -7 9 -4 18 7 21 14 7 14 -6 0 -13 -4 -16 -10z"/>
<path d="M2346 1343 c-6 -14 -5 -15 5 -6 7 7 10 15 7 18 -3 3 -9 -2 -12 -12z"/>
<path d="M2219 1323 c-13 -16 -12 -17 4 -4 9 7 17 15 17 17 0 8 -8 3 -21 -13z"/>
<path d="M1861 1320 c-99 -24 -155 -132 -121 -234 12 -36 11 -38 -30 -82 -26
-28 -39 -51 -36 -60 3 -9 6 -18 6 -20 0 -16 38 3 75 37 42 39 46 40 76 30 105
-37 211 17 239 119 32 120 -87 239 -209 210z m84 -64 c43 -18 67 -56 67 -105
-1 -79 -68 -131 -141 -111 -103 27 -115 173 -18 215 41 18 50 18 92 1z"/>
<path d="M2309 1313 c-13 -16 -12 -17 4 -4 9 7 17 15 17 17 0 8 -8 3 -21 -13z"/>
<path d="M2237 1290 c-9 -11 -13 -20 -7 -20 5 0 14 9 20 20 6 11 9 20 8 20 -2
0 -11 -9 -21 -20z"/>
<path d="M2541 1194 c0 -11 3 -14 6 -6 3 7 2 16 -1 19 -3 4 -6 -2 -5 -13z"/>
<path d="M2552 1090 c0 -14 2 -19 5 -12 2 6 2 18 0 25 -3 6 -5 1 -5 -13z"/>
<path d="M2136 1055 c-9 -26 -7 -32 5 -12 6 10 9 21 6 23 -2 3 -7 -2 -11 -11z"/>
<path d="M2183 1033 c9 -2 23 -2 30 0 6 3 -1 5 -18 5 -16 0 -22 -2 -12 -5z"/>
<path d="M2303 1033 c37 -2 96 -2 130 0 34 2 4 3 -68 3 -71 0 -99 -1 -62 -3z"/>
<path d="M2091 727 c-20 -10 -22 -16 -18 -51 4 -29 1 -46 -13 -63 -22 -29 -16
-59 17 -80 21 -14 32 -15 69 -5 30 8 52 9 69 2 39 -15 41 -13 16 14 -21 22
-22 29 -12 57 15 44 14 49 -9 49 -13 0 -20 -7 -20 -19 0 -28 -15 -33 -34 -12
-15 17 -15 19 4 36 26 24 25 50 -2 69 -26 18 -34 19 -67 3z m54 -27 c7 -11
-12 -40 -25 -40 -11 0 -21 30 -14 41 7 12 31 11 39 -1z m3 -142 c-37 -23 -77
6 -58 42 l12 22 29 -28 c21 -20 26 -30 17 -36z"/>
<path d="M2310 720 c-9 -6 -10 -10 -3 -10 6 0 15 5 18 10 8 12 4 12 -15 0z"/>
<path d="M2630 723 c5 -2 10 -9 10 -14 0 -6 -4 -7 -10 -4 -5 3 -10 1 -10 -4 0
-6 4 -11 10 -11 5 0 11 -24 13 -52 3 -39 3 -35 3 16 -1 48 -5 70 -14 72 -7 1
-8 0 -2 -3z"/>
<path d="M1655 704 c13 -14 14 -19 3 -25 -7 -5 -8 -9 -2 -9 6 0 14 3 17 6 8 9
-11 44 -24 44 -6 0 -3 -7 6 -16z"/>
<path d="M2380 711 c0 -6 4 -13 10 -16 6 -3 7 1 4 9 -7 18 -14 21 -14 7z"/>
<path d="M1541 674 c0 -11 3 -14 6 -6 3 7 2 16 -1 19 -3 4 -6 -2 -5 -13z"/>
<path d="M2713 625 c0 -33 2 -45 4 -27 2 18 2 45 0 60 -2 15 -4 0 -4 -33z"/>
<path d="M1915 633 c15 -36 25 -52 25 -41 0 11 -30 78 -35 78 -3 0 2 -17 10
-37z"/>
<path d="M2004 648 c0 -10 1 -18 3 -18 1 0 7 8 12 18 7 13 6 19 -2 19 -7 0
-13 -9 -13 -19z"/>
<path d="M1842 640 c0 -14 2 -19 5 -12 2 6 2 18 0 25 -3 6 -5 1 -5 -13z"/>
<path d="M2488 653 c-11 -3 -18 -13 -17 -26 0 -15 2 -17 6 -7 4 8 13 20 22 27
17 13 16 13 -11 6z"/>
<path d="M1630 641 c0 -7 -7 -11 -15 -8 -8 4 -16 3 -19 -1 -3 -4 4 -8 14 -9
20 -2 36 14 26 24 -3 4 -6 1 -6 -6z"/>
<path d="M2277 639 c7 -7 15 -10 18 -7 3 3 -2 9 -12 12 -14 6 -15 5 -6 -5z"/>
<path d="M2545 643 c15 -11 13 -32 -5 -43 -11 -7 -10 -9 8 -7 18 1 22 6 20 26
-2 13 -10 26 -18 28 -9 3 -11 1 -5 -4z"/>
<path d="M1560 630 c0 -5 5 -10 11 -10 5 0 7 5 4 10 -3 6 -8 10 -11 10 -2 0
-4 -4 -4 -10z"/>
<path d="M2325 630 c-13 -6 -15 -9 -5 -9 8 0 22 4 30 9 18 12 2 12 -25 0z"/>
<path d="M1666 601 c4 -17 3 -21 -6 -16 -8 5 -7 0 2 -14 13 -21 13 -21 16 -2
2 11 -2 28 -8 38 -9 15 -10 15 -4 -6z"/>
<path d="M1996 613 c-10 -10 -37 -75 -33 -79 2 -2 13 17 25 41 21 44 23 53 8
38z"/>
<path d="M2398 591 c2 -17 -2 -32 -9 -37 -20 -12 -83 -13 -91 -1 -4 6 -10 8
-15 4 -4 -5 -1 -13 7 -18 20 -13 100 -4 111 12 11 18 12 56 1 63 -5 3 -7 -8
-4 -23z"/>
<path d="M1741 594 c0 -11 3 -14 6 -6 3 7 2 16 -1 19 -3 4 -6 -2 -5 -13z"/>
<path d="M1822 590 c0 -14 2 -19 5 -12 2 6 2 18 0 25 -3 6 -5 1 -5 -13z"/>
<path d="M1840 576 c0 -19 -6 -37 -12 -39 -8 -3 -6 -6 5 -6 13 -1 17 7 17 39
0 22 -2 40 -5 40 -3 0 -5 -15 -5 -34z"/>
<path d="M1910 591 c0 -6 4 -13 10 -16 6 -3 7 1 4 9 -7 18 -14 21 -14 7z"/>
<path d="M2465 570 c-8 -13 4 -32 16 -25 5 4 9 2 9 -4 0 -10 64 -10 75 1 4 3
1 9 -6 14 -7 4 -10 3 -6 -3 6 -9 -45 -11 -63 -3 -3 1 -9 2 -14 1 -5 -1 -6 5
-3 14 7 17 2 20 -8 5z"/>
<path d="M1731 554 c0 -11 3 -14 6 -6 3 7 2 16 -1 19 -3 4 -6 -2 -5 -13z"/>
<path d="M1780 544 c-32 -12 -33 -13 -9 -13 15 -1 32 6 39 14 7 8 11 14 9 14
-2 -1 -20 -7 -39 -15z"/>
<path d="M2706 545 c-3 -8 -1 -15 4 -15 6 0 10 7 10 15 0 8 -2 15 -4 15 -2 0
-6 -7 -10 -15z"/>
<path d="M1600 540 c-9 -6 -10 -10 -3 -10 6 0 15 5 18 10 8 12 4 12 -15 0z"/>
<path d="M1635 540 c-3 -6 1 -7 9 -4 18 7 21 14 7 14 -6 0 -13 -4 -16 -10z"/>
<path d="M1938 498 c-14 -14 -15 -18 -4 -18 8 0 17 7 20 16 9 23 4 24 -16 2z"/>
</g>
</svg>
